<svg xmlns="http://www.w3.org/2000/svg" width="82" height="21">
	<!--
		path-ы ложатся слоями друг на друга: сверху отображается тот, который записан ниже.
	-->

    <!--
        Звезды.
        Чтобы заливка была не внутри, а снаружи, необходимо в этом же path-е кроме звезд нарисовать и квадратную рамку.
        Направление обхода контура квадратной рамки по отношению к движению часовой стрелки должно быть противоположно направлению обхода контура самих звезд.
    -->
	<path fill="white" stroke="black" stroke-width="0.5" d="m 0,0 v 21 h 82 v -21 z
															m 11,1.5 l 2,7 h 6.63 l -5.38,3.44 l 2.3,6.5 l -5.69,-4.13 l -5.69,4.13 l 2.3,-6.5 l -5.38,-3.44 h 6.63 z
															m 30,0   l 2,7 h 6.63 l -5.38,3.44 l 2.3,6.5 l -5.69,-4.13 l -5.69,4.13 l 2.3,-6.5 l -5.38,-3.44 h 6.63 z
															m 30,0   l 2,7 h 6.63 l -5.38,3.44 l 2.3,6.5 l -5.69,-4.13 l -5.69,4.13 l 2.3,-6.5 l -5.38,-3.44 h 6.63 z" />

    <!--
        Квадратная рамка, которая накрывает контур рамки вокруг звезд из предыдущего path-а с целью скрыть его.
        Направление обхода контура рамки по отношению к движению часовой стрелки в данном случае не имеет значения.
    -->
	<path fill="none" stroke="white" stroke-width="3" d="m 0,0 h 82 v 21 h -82 z" />
</svg>