<?xml version="1.0" standalone="no"?>
<svg xmlns="http://www.w3.org/2000/svg" width="49pt" height="49pt" viewBox="0 0 49 49">
	<g transform="translate(0.00,49.00) scale(0.10,-0.10)" fill="black" stroke="none">
        <path d="M162 471 c-63 -22 -114 -68 -143 -129 -31 -64 -24 -162 17 -228 66 -107 202 -145 314 -87 33 17 68 45 87 70 141 189 -53 453 -275 374z m197 -44 c96 -64 127 -178 77 -281 -65 -133 -229 -166 -338 -68 -79 71 -98 164 -54 258 40 87 106 125 207 121 53 -2 75 -8 108 -30z" />
        <path d="M197 342 c-18 -20 -23 -52 -8 -52 5 0 12 9 16 19 8 25 31 34 56 21 26 -15 24 -42 -6 -70 -25 -23 -35 -80 -15 -80 6 0 10 10 10 23 0 13 11 33 25 45 46 40 23 112 -37 112 -14 0 -32 -8 -41 -18z" />
        <path d="M230 126 c0 -9 5 -16 10 -16 6 0 10 4 10 9 0 6 -4 13 -10 16 -5 3 -10 -1 -10 -9z" />
	</g>
</svg>