<?xml version="1.0" encoding="UTF-8" standalone="no"?>
<svg xmlns="http://www.w3.org/2000/svg" width="286pt" height="286pt" viewBox="0 0 286 286">
    <path
        d="m 0,60.5 39.8,0 c 15,54.94 29.42,110.05 44.39,165 l -40,0 C 31.15,177.69 18.5,129.76 5.61,81.9 3.81,75.25 2.18,68.55 0,62.01 L 0,60.5 Z"
        style="fill:#5f7495" />
    <path
        d="m 69.81,60.5 39.99,0 c 15,54.94 29.42,110.05 44.39,165 l -40,0 C 99.19,170.56 84.76,115.45 69.81,60.5 Z"
        style="fill:#5f7495" />
    <path
        d="m 143.29,60.5 38.94,0 c 1.24,2.54 2.08,5.25 2.77,7.99 8.94,36.68 18.03,73.33 26.96,110.02 0.58,2.31 1.28,4.59 2.04,6.86 0.84,-2.53 1.59,-5.08 2.23,-7.66 8.4,-34.55 16.97,-69.06 25.38,-103.6 1.18,-4.61 1.92,-9.44 4.34,-13.61 l 39.06,0 c 1.29,5.35 -1.12,10.5 -2.4,15.59 -13.05,47.72 -26.13,95.43 -39.12,143.16 -0.64,2.37 -1.98,4.46 -3.64,6.25 l -51.98,0 c -3.67,-4.54 -4.41,-10.45 -5.98,-15.89 -12.32,-45.03 -24.6,-90.07 -36.96,-135.1 -1.06,-4.56 -3.62,-9.32 -1.64,-14.01 z"
        style="fill:#5f7495" />
</svg>