<?xml version="1.0" encoding="UTF-8" ?>
<svg xmlns="http://www.w3.org/2000/svg" width="286pt" height="286pt" viewBox="0 0 286 286">
    <path fill="#5f7495"
          d=" M 0.00 0.00 L 39.80 0.00 C 54.80 54.94 69.22 110.05 84.19 165.00 L 44.19 165.00 C 31.15 117.19 18.50 69.26 5.61 21.40 C 3.81 14.75 2.18 8.05 0.00 1.51 L 0.00 0.00 Z" />
    <path fill="#5f7495"
          d=" M 69.81 0.00 L 109.80 0.00 C 124.80 54.94 139.22 110.05 154.19 165.00 L 114.19 165.00 C 99.19 110.06 84.76 54.95 69.81 0.00 Z" />
    <path fill="#5f7495"
          d=" M 143.29 0.00 L 182.23 0.00 C 183.47 2.54 184.31 5.25 185.00 7.99 C 193.94 44.67 203.03 81.32 211.96 118.01 C 212.54 120.32 213.24 122.60 214.00 124.87 C 214.84 122.34 215.59 119.79 216.23 117.21 C 224.63 82.66 233.20 48.15 241.61 13.61 C 242.79 9.00 243.53 4.17 245.95 0.00 L 285.01 0.00 C 286.30 5.35 283.89 10.50 282.61 15.59 C 269.56 63.31 256.48 111.02 243.49 158.75 C 242.85 161.12 241.51 163.21 239.85 165.00 L 187.87 165.00 C 184.20 160.46 183.46 154.55 181.89 149.11 C 169.57 104.08 157.29 59.04 144.93 14.01 C 143.87 9.45 141.31 4.69 143.29 0.00 Z" />
</svg>