<?xml version="1.0" encoding="UTF-8" standalone="no"?>
<svg xmlns="http://www.w3.org/2000/svg" width="529.83838pt" height="345.54675pt" viewBox="0 0 529.83838 345.54674">
    <path style="fill:#5f7495"
        d="m 3.9768219e-6,120.17476 25.3748440231781,0 c 9.563378,35.02747 18.757018,70.16338 28.301245,105.19723 l -25.502355,0 C 19.859954,194.89024 11.794855,164.33211 3.576753,133.81851 2.429129,129.57874 1.389857,125.30712 3.9768219e-6,121.13748 l 0,-0.96272 z"/>

    <path style="fill:#5f7495"
        d="m 44.508016,120.17476 25.495957,0 c 9.56337,35.02747 18.75701,70.16338 28.30125,105.19723 l -25.50237,0 C 63.239473,190.3445 54.039513,155.20863 44.508016,120.17476 Z"/>

    <path style="fill:#5f7495"
        d="m 91.355823,120.17476 24.826517,0 c 0.79063,1.61938 1.32617,3.34717 1.76606,5.09407 5.6998,23.38575 11.49518,46.75229 17.1886,70.14427 0.37,1.47283 0.81605,2.9264 1.30059,4.37369 0.5356,-1.61311 1.01375,-3.23888 1.42174,-4.88374 5.35548,-22.02764 10.81937,-44.02981 16.18131,-66.0511 0.75228,-2.93917 1.22408,-6.01851 2.76696,-8.67719 l 24.9031,0 c 0.8224,3.41093 -0.71439,6.69436 -1.53014,9.93952 -8.32016,30.42433 -16.65947,60.8423 -24.94134,91.27299 -0.40779,1.51103 -1.26234,2.84348 -2.32074,3.98473 l -33.14025,0 c -2.3399,-2.89452 -2.81162,-6.66248 -3.8126,-10.13081 -7.85471,-28.70927 -15.68398,-57.42497 -23.564227,-86.13422 -0.67563,-2.90728 -2.30794,-5.94207 -1.04558,-8.93221 z"/>

    <text x="192.46002" y="198.60472"
         style="font-style:normal;font-variant:normal;font-weight:normal;font-stretch:normal;font-size:85.53549957px;line-height:125%;font-family:'Etelka Text Pro';-inkscape-font-specification:'Etelka Text Pro';letter-spacing:3.5999999px;word-spacing:0px;fill:#5f7495;fill-opacity:1;stroke:none;stroke-width:1px;stroke-linecap:butt;stroke-linejoin:miter;stroke-opacity:1">
        <tspan x="192.46002" y="198.60472">erybook</tspan>
    </text>
</svg>
